<svg xmlns="http://www.w3.org/2000/svg" viewBox="0 0 400 440"><defs><style>.f{font-family:'Courier New',Courier,monospace;}.lbl{font-size:9;letter-spacing:2;fill:#555;}.val{font-size:13;fill:#ccc;}@keyframes gc{0%,87%,100%{clip-path:inset(0 0 100% 0);opacity:0;transform:translateX(0)}88%{clip-path:inset(8% 0 52% 0);opacity:1;transform:translateX(-4px)}89%{clip-path:inset(30% 0 28% 0);opacity:1;transform:translateX(3px)}90%{clip-path:inset(68% 0 4% 0);opacity:1;transform:translateX(-2px)}91%{clip-path:inset(0 0 100% 0);opacity:0;transform:translateX(0)}}@keyframes gr{0%,89%,100%{clip-path:inset(0 0 100% 0);opacity:0;transform:translateX(0)}90%{clip-path:inset(48% 0 12% 0);opacity:1;transform:translateX(4px)}91%{clip-path:inset(12% 0 62% 0);opacity:1;transform:translateX(-3px)}92%{clip-path:inset(78% 0 0% 0);opacity:1;transform:translateX(2px)}93%{clip-path:inset(0 0 100% 0);opacity:0;transform:translateX(0)}}.gc{animation:gc 8s infinite;fill:#00e5ff;transform-box:fill-box;}.gr{animation:gr 8s infinite;fill:#ff3b30;transform-box:fill-box;}</style></defs><rect width="400" height="440" fill="#000"/><rect x="1" y="1" width="398" height="438" fill="none" stroke="#1a1a1a"/><polyline points="1,20 1,1 20,1"           fill="none" stroke="#00e5ff" stroke-width="1.5"/><polyline points="380,1 399,1 399,20"       fill="none" stroke="#00e5ff" stroke-width="1.5"/><polyline points="1,420 1,439 20,439"       fill="none" stroke="#00e5ff" stroke-width="1.5"/><polyline points="380,439 399,439 399,420"  fill="none" stroke="#00e5ff" stroke-width="1.5"/><text x="20" y="42" class="f gc" font-size="26" letter-spacing="6" font-weight="bold">EXNIHILO</text><text x="20" y="42" class="f gr" font-size="26" letter-spacing="6" font-weight="bold">EXNIHILO</text><text x="20" y="42" class="f"    font-size="26" letter-spacing="6" fill="#fff" font-weight="bold">EXNIHILO</text><text x="20" y="58" class="f" font-size="9" letter-spacing="3" fill="#00e5ff">POSITION CERTIFICATE</text><line x1="20" y1="70" x2="380" y2="70" stroke="#1a1a1a"/><rect x="20" y="82" width="56" height="20" fill="#00ff88" fill-opacity="0.08"/><rect x="20" y="82" width="56" height="20" fill="none" stroke="#00ff88" stroke-opacity="0.35"/><text x="48" y="96" class="f" font-size="10" letter-spacing="2" fill="#00ff88" text-anchor="middle">LONG</text><text x="380" y="96" class="f" font-size="10" fill="#3a3a3a" text-anchor="end">#0</text><line x1="20" y1="114" x2="380" y2="114" stroke="#1a1a1a"/><text x="20"  y="136" class="f lbl">POSITION SIZE</text><text x="210" y="136" class="f lbl">LOCKED NOCHILL</text><text x="20"  y="156" class="f val">100.00</text><text x="210" y="156" class="f val">98.5024</text><text x="20"  y="196" class="f lbl">FEES PAID</text><text x="20"  y="216" class="f val">5.00</text><line x1="20" y1="244" x2="380" y2="244" stroke="#1a1a1a"/><text x="200" y="268" class="f lbl" text-anchor="middle" letter-spacing="4">EST. P&amp;L</text><text x="200" y="310" class="f" font-size="32" font-weight="bold" fill="#00ff88" text-anchor="middle" letter-spacing="2">+$53.24</text><line x1="20" y1="334" x2="380" y2="334" stroke="#1a1a1a"/><text x="20" y="356" class="f lbl">OPENED</text><text x="20" y="374" class="f" font-size="11" fill="#444">2026-03-04</text></svg>